<svg xmlns="http://www.w3.org/2000/svg" width="57.477" height="43.107" viewBox="0 0 57.477 43.107">
  <g id="wifi-svgrepo-com" transform="translate(0 -3)">
    <path id="Path_607" data-name="Path 607" d="M0,17.369l4.209-4.209a34.69,34.69,0,0,1,49.059,0l4.209,4.209-5.08,5.08-4.209-4.209a27.506,27.506,0,0,0-38.9,0L5.08,22.449Z" fill="#494a4b"/>
    <path id="Path_608" data-name="Path 608" d="M7.909,22.241l-5.08-5.08,4.209-4.209a20.321,20.321,0,0,1,28.738,0l4.209,4.209-5.08,5.08L30.7,18.032a13.136,13.136,0,0,0-18.578,0Z" transform="translate(7.332 10.369)" fill="#494a4b"/>
    <path id="Path_609" data-name="Path 609" d="M14.074,25.369,5.657,16.952l4.209-4.209a5.952,5.952,0,0,1,8.417,0l4.208,4.209Z" transform="translate(14.664 20.738)" fill="#494a4b"/>
  </g>
</svg>
