<svg xmlns="http://www.w3.org/2000/svg" xmlns:xlink="http://www.w3.org/1999/xlink" width="61.156" height="71.286" viewBox="0 0 61.156 71.286">
  <defs>
    <clipPath id="clip-path">
      <rect id="Rectangle_68" data-name="Rectangle 68" width="61.156" height="71.286" transform="translate(0 0)" fill="none"/>
    </clipPath>
  </defs>
  <g id="Group_133" data-name="Group 133" transform="translate(0 -0.004)">
    <g id="Group_133-2" data-name="Group 133" transform="translate(0 0.004)" clip-path="url(#clip-path)">
      <path id="Path_615" data-name="Path 615" d="M61.141,17.476a65.828,65.828,0,0,1-7.064,30.048A57.084,57.084,0,0,1,31.3,71.061a1.324,1.324,0,0,1-1.514-.018,57.236,57.236,0,0,1-26.9-33.915A69.16,69.16,0,0,1,.034,14.889c.028-.937.16-1.871.175-2.808.013-.8.355-1.025,1.132-1.047A47.823,47.823,0,0,0,17.109,8.117,37.861,37.861,0,0,0,29.9.373c.454-.428.77-.534,1.289-.054,5.911,5.46,12.982,8.514,20.817,9.965a56.212,56.212,0,0,0,7.817.756c.808.035,1.068.359,1.111,1.1.1,1.777.272,3.55.207,5.337m-2.512-.069c0-1,.01-2.006,0-3.009-.01-.758-.4-1.076-1.171-1.07a30.716,30.716,0,0,1-5.495-.59A43.89,43.89,0,0,1,31.231,3.586c-.592-.484-.94-.272-1.416.1A45.029,45.029,0,0,1,3.934,13.314c-.958.059-1.465.355-1.453,1.345,0,.259-.024.518-.029.776a67.388,67.388,0,0,0,2.83,21.177A54.639,54.639,0,0,0,29.857,68.235a1.177,1.177,0,0,0,1.411.016A54.892,54.892,0,0,0,48.5,52.106c7.089-10.474,10.051-22.177,10.126-34.7" transform="translate(0 -0.003)" fill="#49494a"/>
      <path id="Path_616" data-name="Path 616" d="M471.431,274.026a5.664,5.664,0,0,1,1.593.053.949.949,0,0,1,.907,1.035c-.036,1.51-.093,3.019-.159,4.528-.024.541-.016.585.521.641a17.845,17.845,0,0,1,3.751.817,2.522,2.522,0,0,1,1.91,2.415,20.213,20.213,0,0,1,.128,2.815,2.207,2.207,0,0,1-.04.3c-.137.66-.419.862-1.056.656-.845-.273-1.666-.622-2.508-.907a12.567,12.567,0,0,0-5.63-.65,6.885,6.885,0,0,0-2.744.851,3.322,3.322,0,0,0-1.5,3.409,4.075,4.075,0,0,0,2.5,3,20.057,20.057,0,0,0,3.7,1.3,32.2,32.2,0,0,1,5.523,1.966,8.371,8.371,0,0,1,4.668,5.4,10.18,10.18,0,0,1-.915,8.141,10.378,10.378,0,0,1-4.418,3.974A15.817,15.817,0,0,1,473,315.252a.45.45,0,0,0-.433.511q-.043,2.132-.1,4.264c-.01.38-.037.76-.06,1.14a.741.741,0,0,1-.556.7,3.969,3.969,0,0,1-.694.2,8.843,8.843,0,0,1-2.843.088c-.735-.134-.938-.35-.928-1.1.02-1.383.081-2.766.125-4.148.006-.2-.006-.408.019-.609.069-.559.1-.65-.6-.721a17.383,17.383,0,0,1-4.593-1.043c-.224-.088-.439-.2-.661-.294a2.123,2.123,0,0,1-1.288-1.722,17.857,17.857,0,0,1-.214-3.113,2.241,2.241,0,0,1,.04-.34c.159-1,.7-1.316,1.623-.884a22.3,22.3,0,0,0,3.078,1.226,13.579,13.579,0,0,0,7.921.072,4.467,4.467,0,0,0,2.753-2.1,3.766,3.766,0,0,0-.94-4.681,11.814,11.814,0,0,0-3.829-1.74,50.316,50.316,0,0,1-5.388-1.782,9.508,9.508,0,0,1-4.988-4.279c-1.476-2.849-1.666-7.493.9-10.549a10.514,10.514,0,0,1,4.455-3.034,14.329,14.329,0,0,1,2.565-.718c.223-.04.324-.126.329-.371.035-1.624.082-3.248.13-4.872.02-.69.182-.887.836-1.093a8.152,8.152,0,0,1,1.774-.23" transform="translate(-440.035 -262.463)" fill="#49494a"/>
    </g>
  </g>
</svg>
