<?xml version="1.0" encoding="UTF-8"?>
<svg id="Capa_2" xmlns="http://www.w3.org/2000/svg" xmlns:xlink="http://www.w3.org/1999/xlink" version="1.1" viewBox="0 0 381 381">
  <!-- Generator: Adobe Illustrator 29.0.1, SVG Export Plug-In . SVG Version: 2.1.0 Build 192)  -->
  <defs>
    <style>
      .st0 {
        fill: url(#Degradado_sin_nombre);
      }
    </style>
    <linearGradient id="Degradado_sin_nombre" data-name="Degradado sin nombre" x1="0" y1="191.5" x2="381" y2="191.5" gradientTransform="translate(0 382) scale(1 -1)" gradientUnits="userSpaceOnUse">
      <stop offset="0" stop-color="#fff"/>
      <stop offset="0" stop-color="#f7fcfc"/>
      <stop offset=".2" stop-color="#e1f7f5"/>
      <stop offset=".4" stop-color="#bdedea"/>
      <stop offset=".6" stop-color="#8be0db"/>
      <stop offset=".8" stop-color="#4ccfc8"/>
      <stop offset="1" stop-color="#00bbb1"/>
    </linearGradient>
  </defs>
  <g id="Capa_1-2">
    <circle class="st0" cx="190.5" cy="190.5" r="190.5"/>
    <g>
      <path d="M163.7,294.3c-.2-.8-2-2-2.9-2.4-5.2-2.1-17.9-2.5-24.8-4-20.6-4.5-39.1-13.2-50.2-31.8-2.8-4.6-6.9-17.5-8.9-19.8-3.4-3.9-11-4.1-15.6-12.1-7-12-6.8-44.6,2-55.8,3.9-5,11.4-6.3,13.6-8.8,2-2.2,6.6-16.2,9.7-21.2,11.1-17.8,29.3-26.3,49.2-30.6,6.9-1.5,16.9-1.7,22.8-3.8,3.6-1.3,6-4.3,10.1-5.9,3.2-1.2,15.5-2.9,16-3.7.4-.6,2.4-14.3,2.2-15-.8-3.3-10.1-4.5-10.6-15.1-.9-21.6,31.5-21.8,29.9,1.1-.6,9.3-9.8,10.8-10.6,14-.2.7,1.7,14.4,2.2,15.1.4.7,13,2.4,16.1,3.6,4.1,1.6,6.5,4.6,10.1,5.9,5.9,2.1,15.9,2.3,22.8,3.8,21.8,4.7,40.7,14.4,51.8,34.5,2.4,4.3,5.3,15.2,7.2,17.3s8,3.3,11.5,6.6c13,12.4,12.9,54.2-2.5,65.2-2.5,1.8-7.2,2.9-8.9,4.9-1.9,2.2-4.2,11.5-6.1,15.2-10.9,21.7-27.4,27.8-48.5,36.7-26.6,11.2-54.3,20-81.1,30.6-1.5,1-6.4.6-6.4-1.1,0-5.1,1-19.8,0-23.4h0ZM185.8,131.2c-21.7.3-61,1.7-74.8,21-14.7,20.7-14.7,81.8,6.9,98.3,24.2,18.5,117.4,18.2,142.9,2.5,24.6-15.1,24.6-65.1,16.4-89.5-11.3-33.8-61.8-32.8-91.5-32.4h0Z"/>
      <path d="M159.1,182.3c6.6,5.5,6.8,28.2-2.7,32.4-19.7,8.9-22.7-36-4.1-34.8,1.4,0,5.7,1.5,6.7,2.4h0Z"/>
      <path d="M238.9,212.5c-3.2,3.4-10.1,3.9-14.1,1.4-8.4-5.3-8.3-30,2.9-33.4,16.4-5,18.3,24.2,11.2,32Z"/>
    </g>
  </g>
</svg>