<svg xmlns="http://www.w3.org/2000/svg" width="60.501" height="51.911" viewBox="0 0 60.501 51.911">
  <g id="sales-amount-svgrepo-com" transform="translate(-0.001 -71.68)">
    <path id="Path_610" data-name="Path 610" d="M8.09,152.756a.6.6,0,0,0,.6-.6V135.344a.6.6,0,0,0-.6-.6H3.251a.6.6,0,0,0-.6.6v16.813a.6.6,0,0,0,.6.6Zm0,2.393H3.251a3.008,3.008,0,0,1-3.024-2.991V135.344a3.008,3.008,0,0,1,3.024-2.991H8.09a3.008,3.008,0,0,1,3.024,2.991v16.814A3.008,3.008,0,0,1,8.09,155.148Zm16.444-2.393a.6.6,0,0,0,.6-.6V131.872a.6.6,0,0,0-.6-.6H19.7a.6.6,0,0,0-.6.6v20.285a.6.6,0,0,0,.6.6Zm0,2.393H19.7a3.008,3.008,0,0,1-3.024-2.991V131.872a3.008,3.008,0,0,1,3.024-2.991h4.839a3.008,3.008,0,0,1,3.024,2.991v20.286A3.008,3.008,0,0,1,24.534,155.148Zm16.444-2.357a.6.6,0,0,0,.6-.6V128.435a.6.6,0,0,0-.6-.6H36.14a.6.6,0,0,0-.6.6v23.758a.6.6,0,0,0,.6.6Zm0,2.393H36.14a3.008,3.008,0,0,1-3.024-2.991V128.435a3.008,3.008,0,0,1,3.024-2.991h4.839A3.008,3.008,0,0,1,44,128.435v23.758A3.008,3.008,0,0,1,40.979,155.184Zm16.444-2.393a.6.6,0,0,0,.6-.6V125.445a.6.6,0,0,0-.6-.6H52.585a.6.6,0,0,0-.6.6v26.749a.6.6,0,0,0,.6.6Zm0,2.393H52.585a3.008,3.008,0,0,1-3.024-2.991V125.445a3.008,3.008,0,0,1,3.024-2.991h4.839a3.008,3.008,0,0,1,3.024,2.991v26.749A3.008,3.008,0,0,1,57.423,155.185ZM57.057,106a130.679,130.679,0,0,1-55.919,16.29,1.2,1.2,0,1,0,.146,2.388,133.119,133.119,0,0,0,56.96-16.593,1.189,1.189,0,0,0,.46-1.63A1.217,1.217,0,0,0,57.057,106Z" transform="translate(0 -31.594)" fill="#494a4b"/>
    <path id="Path_611" data-name="Path 611" d="M882.3,74.766l7.715.012a1.543,1.543,0,1,0,0-3.086l-7.715-.012a1.543,1.543,0,0,0,0,3.086Z" transform="translate(-831.061)" fill="#494a4b"/>
    <path id="Path_612" data-name="Path 612" d="M982.867,73.371l-.023,7.673a1.543,1.543,0,1,0,3.086.009l.023-7.673a1.543,1.543,0,1,0-3.086-.009Z" transform="translate(-925.452 -0.141)" fill="#494a4b"/>
  </g>
</svg>
