<svg xmlns="http://www.w3.org/2000/svg" width="60" height="60" viewBox="0 0 60 60">
  <g id="operations-record-svgrepo-com" transform="translate(0.123 0.123)">
    <rect id="Rectangle_65" data-name="Rectangle 65" width="19" height="4" transform="translate(36.877 36.877)" fill="#49494a"/>
    <rect id="Rectangle_66" data-name="Rectangle 66" width="19" height="4" transform="translate(36.877 44.877)" fill="#49494a"/>
    <rect id="Rectangle_67" data-name="Rectangle 67" width="19" height="4" transform="translate(36.877 51.877)" fill="#49494a"/>
    <path id="Path_613" data-name="Path 613" d="M21.2,28.664A7.3,7.3,0,0,1,13.733,21.2,7.3,7.3,0,0,1,21.2,13.733,7.3,7.3,0,0,1,28.664,21.2H32.4A11.2,11.2,0,1,0,21.2,32.4Z" transform="translate(8.679 8.679)" fill="#49494a"/>
    <path id="Path_614" data-name="Path 614" d="M52.591,18.88,48.185,11.25a3.729,3.729,0,0,0-4.429-1.67l-4.543,1.537A20.608,20.608,0,0,0,36.765,9.7L35.825,5a3.733,3.733,0,0,0-3.661-3H23.355a3.733,3.733,0,0,0-3.66,3l-.94,4.7a20.468,20.468,0,0,0-2.477,1.406L11.762,9.58a3.729,3.729,0,0,0-4.429,1.67L2.927,18.88A3.734,3.734,0,0,0,3.7,23.55l3.6,3.167c-.032.469-.071.936-.071,1.412s.019.957.052,1.429L3.7,32.709a3.734,3.734,0,0,0-.769,4.671l4.406,7.629a3.729,3.729,0,0,0,4.429,1.67L16.3,45.142a20.481,20.481,0,0,0,2.449,1.415l.94,4.7a3.733,3.733,0,0,0,3.661,3h4.4V50.526h-4.4L22.029,43.9A16.976,16.976,0,0,1,17,40.967l-6.433,2.176-4.4-7.629,5.085-4.47a16.66,16.66,0,0,1-.013-5.838L6.16,20.746l4.407-7.629,6.4,2.163a16.855,16.855,0,0,1,5.066-2.92l1.326-6.627h8.809l1.325,6.627a16.98,16.98,0,0,1,5.03,2.933l6.433-2.176,4.4,7.629-5.222,4.577L46.6,28.13l5.226-4.579a3.734,3.734,0,0,0,.77-4.671Z" transform="translate(2.118 1.747)" fill="#49494a"/>
    <rect id="_Transparent_Rectangle_" data-name="&lt;Transparent Rectangle&gt;" width="60" height="60" transform="translate(-0.123 -0.123)" fill="none"/>
  </g>
</svg>
